<?xml version="1.0" encoding="utf-8"?>
<!-- Generator: Adobe Illustrator 26.0.1, SVG Export Plug-In . SVG Version: 6.00 Build 0)  -->
<svg version="1.1" id="Layer_1" xmlns="http://www.w3.org/2000/svg" xmlns:xlink="http://www.w3.org/1999/xlink" x="0px" y="0px"
	 viewBox="0 0 1000 1000" style="enable-background:new 0 0 1000 1000;" xml:space="preserve">
<style type="text/css">
	.st0{display:none;fill:none;stroke:#000000;stroke-miterlimit:10;}
	.st1{fill:#408C3C;}
</style>
<rect x="307.9" y="307.1" class="st0" width="382.9" height="383"/>
<g>
	<path class="st1" d="M0.8,926.9c0-2.3,0.1-4.5,0.3-6.8C0.9,922.3,0.8,924.6,0.8,926.9z"/>
	<path class="st1" d="M973.4,732L849.3,856.1h77c39.2,0,71,31.8,71,71c0,19.6-8,37.3-20.8,50.2c-12.8,12.8-30.6,20.8-50.2,20.8
		H681.5c-39.2,0-71-31.8-71-71c0-12,3-23.3,8.3-33.2c0,0,0,0,0,0c3.5-8.5,8.7-16.5,15.6-23.5l220.8-220.8V547.1L427.8,974.4
		c-8.4,8.4-18.4,14.3-29.1,17.6c-8.8,3.9-18.5,6.1-28.8,6.1H71.7c-38,0-69-29.8-70.9-67.3c0-0.1,0-0.1,0-0.2
		c-0.1-0.9-0.1-1.8-0.1-2.8c0-0.3,0-0.5,0-0.8v-0.2c0-2.3,0.1-4.6,0.3-6.8l0.1-0.7c0.1-1,0.2-2.1,0.4-3.1c2.2-14.5,8.8-28.4,20-39.6
		L756,142.2H653.6L121.2,674.7c-27.7,27.7-72.7,27.7-100.4,0C6.9,660.8,0,642.6,0,624.5c0-3.5,0.3-6.9,0.8-10.3v-289
		c0-15.2,4.8-29.2,12.9-40.8c3.4-7.4,8.2-14.3,14.2-20.4l121.7-121.7H72.8c-39.2,0-71-31.8-71-71c0-19.6,8-37.3,20.8-50.2
		C35.5,8.2,53.2,0.3,72.8,0.3h244.8c39.2,0,71,31.8,71,71c0,5.6-0.6,11.1-1.9,16.4c-2.4,13.9-9,27.2-19.7,38L142.7,349.9v102.4
		L570,25.1c6.5-6.5,14.1-11.6,22.1-15c10.6-6.2,22.8-9.8,36-9.8h293.5c20.2-1.8,40.9,5.1,56.3,20.5c13.9,13.9,20.8,32,20.8,50.2
		c0,18.2-6.9,36.3-20.8,50.2l-735,734.9h102.5l531.3-531.3c27.7-27.7,72.7-27.7,100.4,0c13.9,13.9,20.8,32,20.8,50.2
		c0,3.5-0.3,7-0.8,10.5v291.3c0,13.6-3.8,26.4-10.6,37.2C983.2,720.5,978.8,726.6,973.4,732z"/>
</g>
</svg>
