<?xml version="1.0" encoding="utf-8"?>
<!-- Generator: Adobe Illustrator 26.0.1, SVG Export Plug-In . SVG Version: 6.00 Build 0)  -->
<svg version="1.1" id="Layer_1" xmlns="http://www.w3.org/2000/svg" xmlns:xlink="http://www.w3.org/1999/xlink" x="0px" y="0px"
	 viewBox="0 0 1000 1000" style="enable-background:new 0 0 1000 1000;" xml:space="preserve">
<style type="text/css">
	.st0{display:none;fill:none;stroke:#000000;stroke-miterlimit:10;}
	.st1{fill:#408C3C;}
</style>
<rect x="307.91" y="307.12" class="st0" width="382.95" height="382.95"/>
<g>
	<path class="st1" d="M307.49,663.68c0-0.87,0.04-1.75,0.13-2.62C307.54,661.92,307.49,662.8,307.49,663.68z"/>
	<path class="st1" d="M681.76,588.7l-47.74,47.74h29.61c15.08,0,27.31,12.23,27.31,27.31c0,7.55-3.06,14.37-8,19.32
		c-4.94,4.94-11.77,8-19.31,8h-94.21c-15.09,0-27.32-12.23-27.32-27.32c0-4.62,1.15-8.97,3.18-12.78c0,0-0.01-0.01,0-0.01
		c1.33-3.28,3.33-6.36,6-9.03l84.95-84.96v-39.42l-164.4,164.41c-3.24,3.24-7.09,5.5-11.18,6.76c-3.38,1.51-7.13,2.35-11.08,2.35
		H334.8c-14.61,0-26.54-11.48-27.27-25.91c-0.01-0.02-0.01-0.04,0-0.06c-0.02-0.35-0.03-0.71-0.03-1.06
		c-0.01-0.1-0.01-0.19-0.01-0.29v-0.07c0-0.88,0.05-1.76,0.13-2.62l0.03-0.28c0.04-0.4,0.09-0.8,0.15-1.19
		c0.84-5.57,3.4-10.93,7.69-15.22l282.62-282.62H558.7L353.82,566.62c-10.66,10.67-27.96,10.67-38.62,0c-5.34-5.34-8-12.32-8-19.32
		c0-1.33,0.1-2.66,0.29-3.98V432.11c0-5.84,1.84-11.25,4.97-15.69c1.31-2.84,3.14-5.5,5.48-7.84l46.83-46.83h-29.54
		c-15.09,0-27.32-12.23-27.32-27.32c0-7.54,3.06-14.37,8-19.31c4.95-4.94,11.77-8,19.32-8h94.2c15.09,0,27.32,12.23,27.32,27.31
		c0,2.17-0.25,4.29-0.74,6.31c-0.93,5.35-3.46,10.48-7.59,14.61l-86.3,86.3v39.42l164.41-164.41c2.52-2.52,5.41-4.45,8.49-5.77
		c4.06-2.4,8.79-3.77,13.84-3.77H661.8c7.76-0.68,15.74,1.95,21.68,7.89c5.34,5.33,8,12.33,8,19.31c0,7-2.66,13.98-8,19.32
		l-282.81,282.8h39.43L644.54,432c10.66-10.67,27.96-10.67,38.62,0c5.34,5.33,8,12.32,8,19.31c0,1.35-0.1,2.7-0.3,4.04v112.1
		c0,5.25-1.48,10.16-4.06,14.32C685.53,584.27,683.85,586.61,681.76,588.7z"/>
</g>
</svg>
